/* XPM */
static char *_84ab5d06cfa454385b92e9af189047e[] = {
/* columns rows colors chars-per-pixel */
"16 16 46 1 ",
"  c gray15",
". c #3A3A3A",
"X c gray26",
"o c #464646",
"O c #4F4E4E",
"+ c #535252",
"@ c #555454",
"# c #565656",
"$ c #646363",
"% c gray40",
"& c gray42",
"* c #767575",
"= c #797878",
"- c #797979",
"; c #888888",
": c #8D8D8D",
"> c #929292",
", c gray59",
"< c gray61",
"1 c #9F9E9E",
"2 c gray64",
"3 c #AAAAAA",
"4 c gray67",
"5 c #AFAFAF",
"6 c gray69",
"7 c #B1B1B1",
"8 c #B7B7B7",
"9 c gray72",
"0 c gray75",
"q c gray76",
"w c #C5C5C5",
"e c #C6C6C6",
"r c #C8C8C8",
"t c gray79",
"y c #CACACA",
"u c #CDCDCD",
"i c #D5D5D5",
"p c gainsboro",
"a c #DDDDDD",
"s c gray87",
"d c #E2E2E2",
"f c #E9E9E9",
"g c #ECECEC",
"h c #F4F4F4",
"j c gray100",
"k c None",
/* pixels */
"kkkkkkkapkkkkkkk",
"kkkkkkejjekkkkkk",
"kkkkkrjjjjrkkkkk",
"kkkkrjjjjjjrkkkk",
"kkkrjjjjjjjjrkkk",
"kkrjjjjjjjjjjrkk",
"ke88*d4q8%,8u*ek",
"aj>8@>+=@1$O%gja",
"ajX6=X.@i@2o;jja",
"k6 :41&e&qX8Xark",
"kk6hjjhjajfjhrkk",
"kkkrjjjjjjjjukkk",
"kkkkujjjjjjrkkkk",
"kkkkkrjjjjrkkkkk",
"kkkkkkrjjrkkkkkk",
"kkkkkkkaakkkkkkk"
};
