/* XPM */
static char *_59072810bf44bafb27057a5dd419fc2[] = {
/* columns rows colors chars-per-pixel */
"64 64 82 1 ",
"  c black",
". c #0B0B0B",
"X c gray10",
"o c gray15",
"O c #282828",
"+ c gray16",
"@ c #2A2A2A",
"# c #2F2F2F",
"$ c #343434",
"% c gray22",
"& c #393939",
"* c gray25",
"= c #414141",
"- c #424141",
"; c gray26",
": c #434343",
"> c #555454",
", c #565656",
"< c gray34",
"1 c #585858",
"2 c gray36",
"3 c #626262",
"4 c gray40",
"5 c #676767",
"6 c #686868",
"7 c DimGray",
"8 c gray42",
"9 c #6F6F6F",
"0 c gray45",
"q c #767575",
"w c gray47",
"e c #797979",
"r c gray49",
"t c #848484",
"y c gray53",
"u c #888888",
"i c #898989",
"p c #8D8D8D",
"a c gray56",
"s c #929292",
"d c #939393",
"f c gray59",
"g c #979797",
"h c #9B9B9B",
"j c gray61",
"k c #9F9E9E",
"l c #9F9F9F",
"z c #A4A4A4",
"x c #AAAAAA",
"c c gray67",
"v c #AEAEAE",
"b c #B1B1B1",
"n c #B7B7B7",
"m c #BBBBBB",
"M c gray74",
"N c gray76",
"B c #C5C5C5",
"V c #C6C6C6",
"C c gray79",
"Z c #CDCDCD",
"A c #CECECE",
"S c gray81",
"D c #D0D0D0",
"F c gray82",
"G c #D2D2D2",
"H c #D5D5D5",
"J c #D8D7D7",
"K c #D8D8D8",
"L c gray85",
"P c #DDDDDD",
"I c gray88",
"U c #E1E1E1",
"Y c #E2E2E2",
"T c gray89",
"R c #E9E9E9",
"E c #EAEAEA",
"W c #ECECEC",
"Q c #F4F4F4",
"! c gray96",
"~ c #F6F5F5",
"^ c gray100",
"/ c None",
/* pixels */
"///////////////////////////////LH///////////////////////////////",
"//////////////////////////////N^^N//////////////////////////////",
"/////////////////////////////N^^^^N/////////////////////////////",
"////////////////////////////N^^^^^^N////////////////////////////",
"///////////////////////////N^^^^^^^^N///////////////////////////",
"//////////////////////////N^^^^^^^^^^N//////////////////////////",
"/////////////////////////N^^^^^^^^^^^^N/////////////////////////",
"////////////////////////N^^^^^^^^^^^^^^N////////////////////////",
"///////////////////////N^^^^^^^^^^^^^^^^N///////////////////////",
"//////////////////////N^^^^^^^^^^^^^^^^^^N//////////////////////",
"/////////////////////N^^^^^^^^^^^^^^^^^^^^N/////////////////////",
"////////////////////N^^^^^^^^^^^^^^^^^^^^^^N////////////////////",
"///////////////////N^^^^^^^^^^^^^^^^^^^^^^^^N///////////////////",
"//////////////////N^^^^^^^^^^^^^^^^^^^^^^^^^^N//////////////////",
"/////////////////N^^^^^^^^^^^^^^^^^^^^^^^^^^^^N/////////////////",
"////////////////N^^^^^^^^^^^^^^^^^^^^^^^^^^^^^^N////////////////",
"///////////////N^^^^^^^^^^^^^^^^^^^^^^^^^^^^^^^^N///////////////",
"//////////////N^^^^^^^^^^^^^^^^^^^^^^^^^^^^^^^^^^N//////////////",
"/////////////N^^^^^^^^^^^^^^^^^^^^^^^^^^^^^^^^^^^^N/////////////",
"////////////N^^^^^^^^^^^^^^^^^^^^^^^^^^^^^^^^^^^^^^N////////////",
"///////////N^^^^^^^^^^^^^^^^^^^^^^^^^^^^^^^^^^^^^^^^N///////////",
"//////////N^^^^^^^^^^^^^^^^^^^^^^^^^^^^^^^^^^^^^^^^^^N//////////",
"/////////N^^^^^^^^^^^^^^^^^^^^^^^^^^^^^^^^^^^^^^^^^^^^N/////////",
"////////N^^^^^^^^^^^^^^^^^^^^^^^^^^^^^^^^^^^^^^^^^^^^^^N////////",
"///////N^^^^^^^^^^^^^^^^^^^^^^^^^^^^^^^^^^^^^^^^^^^^^^^^N///////",
"//////N^^^~---E^^4--N^^^^^q--E^^^^^^^^nN^^J--,~^^^^^k---NN//////",
"/////N^^^^J--,^^~---t^^^^^,-,^^^^^^^Uq--N^^t--k^^^^n---n^^N/////",
"////N^^^^^n--s^^Z----W^^^U--s^^^^^^n-----N^H---E^^n---c^^^^N////",
"///N^^^^^^i++b^^b++++z^^^b++z^^^^L4----,--N^e@@g^C+++i^^^^^^N///",
"//N^^^^^^^,++C^^i++++:~^^z++C^^~c----qUU,--NH+++C+++7^^^^^^^^N//",
"/N^^^^^^^~+++~^^,++i++M^^7++E^H,++++g^^^I-++Me+++++,~^^^^^^^^^N/",
"L^^^^^^^^C++,^^~++-E++7^~++-~z++++++-U^^^U-+Oz++++-E^^^^^^^^^^^L",
"U^^^^^^^^b++i^^C++u^e++PH++0,+++-bg++-U^^^U-++&+++I^^^^^^^^^^^^U",
"/Z^^^^^^^u+ob^^bOOb^MO+gbOO++++uE^^g++-I^^^I-$OOOOE^^^^^^^^^^^Z/",
"//G^^^^^^*ooC^^tooC^^*o-woo,++w^^^^^g++-P^^^hooooog^^^^^^^^^^G//",
"///Z^^^^QXXX~^^&XXQ^^vXXXXXE6OOg^^^^^gOO-U^mXXX0XXXE^^^^^^^^Z///",
"////G^^^B..2^^Q..2^^^E....#^~4oog^^^^^go*MG...9^9..9^^^^^^^G////",
"/////Z^^k  r^^B  r^^^^r   r^^~3XXs^^^^^vEP   ,Q^G   G^^^^^Z/////",
"//////Z^r  c^^c  c^^^^B   c^^^~1..a^^^^^Eo  -E^^^7  7^^^^Z//////",
"///////Go  G^^r  P^^^^^-  B^^^^~1  p^^^R-  oE^^^^G   G^^G///////",
"////////Z^^^^^^^^^^^^^^^^^^^^^^^~,  c^^^^^^^^^^^^^^^^^^Z////////",
"/////////G^^^^^^^^^^^^^^^^^^^^^^^Q7B^^^^^^^^^^^^^^^^^^Z/////////",
"//////////Z^^^^^^^^^^^^^^^^^^^^^^^^^^^^^^^^^^^^^^^^^^Z//////////",
"///////////Z^^^^^^^^^^^^^^^^^^^^^^^^^^^^^^^^^^^^^^^^G///////////",
"////////////G^^^^^^^^^^^^^^^^^^^^^^^^^^^^^^^^^^^^^^G////////////",
"/////////////Z^^^^^^^^^^^^^^^^^^^^^^^^^^^^^^^^^^^^Z/////////////",
"//////////////G^^^^^^^^^^^^^^^^^^^^^^^^^^^^^^^^^^Z//////////////",
"///////////////Z^^^^^^^^^^^^^^^^^^^^^^^^^^^^^^^^G///////////////",
"////////////////Z^^^^^^^^^^^^^^^^^^^^^^^^^^^^^^Z////////////////",
"/////////////////G^^^^^^^^^^^^^^^^^^^^^^^^^^^^Z/////////////////",
"//////////////////Z^^^^^^^^^^^^^^^^^^^^^^^^^^Z//////////////////",
"///////////////////Z^^^^^^^^^^^^^^^^^^^^^^^^G///////////////////",
"////////////////////G^^^^^^^^^^^^^^^^^^^^^^Z////////////////////",
"/////////////////////Z^^^^^^^^^^^^^^^^^^^^G/////////////////////",
"//////////////////////Z^^^^^^^^^^^^^^^^^^Z//////////////////////",
"///////////////////////G^^^^^^^^^^^^^^^^G///////////////////////",
"////////////////////////Z^^^^^^^^^^^^^^Z////////////////////////",
"/////////////////////////Z^^^^^^^^^^^^Z/////////////////////////",
"//////////////////////////G^^^^^^^^^^G//////////////////////////",
"///////////////////////////Z^^^^^^^^Z///////////////////////////",
"////////////////////////////G^^^^^^G////////////////////////////",
"/////////////////////////////Z^^^^Z/////////////////////////////",
"//////////////////////////////G^^Z//////////////////////////////",
"///////////////////////////////TT///////////////////////////////"
};
