/* XPM */
static char *_5a59fc5416b44c086b0e93220a7a340[] = {
/* columns rows colors chars-per-pixel */
"32 32 61 1 ",
"  c black",
". c gray13",
"X c gray15",
"o c gray16",
"O c #3C3C3C",
"+ c gray24",
"@ c #424141",
"# c gray26",
"$ c #555454",
"% c #565656",
"& c #585858",
"* c gray37",
"= c gray40",
"- c #686868",
"; c DimGray",
": c gray42",
"> c #767575",
", c #767676",
"< c #797979",
"1 c gray49",
"2 c #7E7E7E",
"3 c #848484",
"4 c #868686",
"5 c #888888",
"6 c #8D8D8D",
"7 c #8E8E8E",
"8 c #929292",
"9 c gray58",
"0 c #979797",
"q c #9F9E9E",
"w c #A2A2A2",
"e c #AAAAAA",
"r c gray67",
"t c #AFAFAF",
"y c #B1B1B1",
"u c #B7B7B7",
"i c #BCBCBC",
"p c gray74",
"a c gray76",
"s c #C5C5C5",
"d c gray78",
"f c #CBCBCB",
"g c #CDCDCD",
"h c gray82",
"j c gray83",
"k c #D5D5D5",
"l c #D8D7D7",
"z c #DADADA",
"x c gray86",
"c c #DDDDDD",
"v c #DFDFDF",
"b c gray88",
"n c #E2E2E2",
"m c #E9E9E9",
"M c #EAEAEA",
"N c #ECECEC",
"B c #F4F4F4",
"V c gray96",
"C c #F6F5F5",
"Z c gray100",
"A c None",
/* pixels */
"AAAAAAAAAAAAAAAxxAAAAAAAAAAAAAAA",
"AAAAAAAAAAAAAAsZZsAAAAAAAAAAAAAA",
"AAAAAAAAAAAAAsZZZZsAAAAAAAAAAAAA",
"AAAAAAAAAAAAsZZZZZZsAAAAAAAAAAAA",
"AAAAAAAAAAAsZZZZZZZZsAAAAAAAAAAA",
"AAAAAAAAAAsZZZZZZZZZZsAAAAAAAAAA",
"AAAAAAAAAsZZZZZZZZZZZZsAAAAAAAAA",
"AAAAAAAAsZZZZZZZZZZZZZZsAAAAAAAA",
"AAAAAAAsZZZZZZZZZZZZZZZZsAAAAAAA",
"AAAAAAsZZZZZZZZZZZZZZZZZZsAAAAAA",
"AAAAAsZZZZZZZZZZZZZZZZZZZZsAAAAA",
"AAAAsZZZZZZZZZZZZZZZZZZZZZZsAAAA",
"AAAsZl#aa#qZZ3=ZZZg3B8#nZC>#0AAA",
"AAsZZu#Nq#$CZ=qZBq@#>x@8Z3#aZsAA",
"AsZZZ3=Z>#@uN#ag=#qn>>7#3#rZZZsA",
"xZZZZ#0Z#<o$po1o$#;BC;*oo4ZZZZZx",
"xZZZmoykok#o<Oo3Zv#;CC;oobZZZZZx",
"AfZZp.kyOZw..>0OvZvO5xOO.3ZZZZgA",
"AAfZ7XZ;:Zx  rZ7XxZmm#Xm1 jZZgAA",
"AAAf#;ZX7ZZ: hZZ7XmC& hZx &ZfAAA",
"AAAAfZZZZZZZZZZZZsZZZZZZZZZfAAAA",
"AAAAAfZZZZZZZZZZZZZZZZZZZZfAAAAA",
"AAAAAAfZZZZZZZZZZZZZZZZZZfAAAAAA",
"AAAAAAAfZZZZZZZZZZZZZZZZfAAAAAAA",
"AAAAAAAAfZZZZZZZZZZZZZZfAAAAAAAA",
"AAAAAAAAAfZZZZZZZZZZZZfAAAAAAAAA",
"AAAAAAAAAAfZZZZZZZZZZfAAAAAAAAAA",
"AAAAAAAAAAAfZZZZZZZZfAAAAAAAAAAA",
"AAAAAAAAAAAAfZZZZZZfAAAAAAAAAAAA",
"AAAAAAAAAAAAAfZZZZfAAAAAAAAAAAAA",
"AAAAAAAAAAAAAAgZZfAAAAAAAAAAAAAA",
"AAAAAAAAAAAAAAAxnAAAAAAAAAAAAAAA"
};
